<?xml version="1.0" standalone="no"?><!-- Generator: Gravit.io --><svg xmlns="http://www.w3.org/2000/svg" xmlns:xlink="http://www.w3.org/1999/xlink" style="isolation:isolate" viewBox="0 0 1073 225" width="1073" height="225"><g><path d=" M 803 116.416 L 803 116.416 L 803 116.416 Q 803 145.05 787.101 160.198 L 787.101 160.198 L 787.101 160.198 Q 771.201 175.346 741.301 175.346 L 741.301 175.346 L 708.948 175.346 L 708.948 59.7 L 744.702 59.7 L 744.702 59.7 Q 772.309 59.7 787.654 74.571 L 787.654 74.571 L 787.654 74.571 Q 803 89.442 803 116.416 Z  M 783.066 117.048 L 783.066 117.048 L 783.066 117.048 Q 783.066 75.52 744.228 75.52 L 744.228 75.52 L 727.854 75.52 L 727.854 159.447 L 741.301 159.447 L 741.301 159.447 Q 783.066 159.447 783.066 117.048 Z  M 862.066 176.928 L 862.066 176.928 L 862.066 176.928 Q 841.658 176.928 830.149 165.023 L 830.149 165.023 L 830.149 165.023 Q 818.64 153.119 818.64 132.236 L 818.64 132.236 L 818.64 132.236 Q 818.64 110.799 829.318 98.539 L 829.318 98.539 L 829.318 98.539 Q 839.997 86.278 858.665 86.278 L 858.665 86.278 L 858.665 86.278 Q 875.988 86.278 886.034 96.798 L 886.034 96.798 L 886.034 96.798 Q 896.08 107.319 896.08 125.75 L 896.08 125.75 L 896.08 135.795 L 837.782 135.795 L 837.782 135.795 Q 838.178 148.531 844.664 155.373 L 844.664 155.373 L 844.664 155.373 Q 851.15 162.215 862.937 162.215 L 862.937 162.215 L 862.937 162.215 Q 870.688 162.215 877.373 160.752 L 877.373 160.752 L 877.373 160.752 Q 884.057 159.289 891.729 155.887 L 891.729 155.887 L 891.729 170.996 L 891.729 170.996 Q 884.927 174.239 877.966 175.583 L 877.966 175.583 L 877.966 175.583 Q 871.005 176.928 862.066 176.928 Z  M 858.665 100.358 L 858.665 100.358 L 858.665 100.358 Q 849.806 100.358 844.466 105.974 L 844.466 105.974 L 844.466 105.974 Q 839.127 111.59 838.099 122.348 L 838.099 122.348 L 877.808 122.348 L 877.808 122.348 Q 877.649 111.511 872.587 105.935 L 872.587 105.935 L 872.587 105.935 Q 867.524 100.358 858.665 100.358 Z  M 950.479 176.928 L 950.479 176.928 L 950.479 176.928 Q 930.625 176.928 920.302 165.34 L 920.302 165.34 L 920.302 165.34 Q 909.979 153.751 909.979 132.078 L 909.979 132.078 L 909.979 132.078 Q 909.979 110.008 920.777 98.143 L 920.777 98.143 L 920.777 98.143 Q 931.574 86.278 951.982 86.278 L 951.982 86.278 L 951.982 86.278 Q 965.825 86.278 976.899 91.419 L 976.899 91.419 L 971.283 106.37 L 971.283 106.37 Q 959.497 101.782 951.824 101.782 L 951.824 101.782 L 951.824 101.782 Q 929.122 101.782 929.122 131.919 L 929.122 131.919 L 929.122 131.919 Q 929.122 146.632 934.778 154.028 L 934.778 154.028 L 934.778 154.028 Q 940.434 161.424 951.35 161.424 L 951.35 161.424 L 951.35 161.424 Q 963.769 161.424 974.843 155.254 L 974.843 155.254 L 974.843 171.47 L 974.843 171.47 Q 969.859 174.397 964.204 175.663 L 964.204 175.663 L 964.204 175.663 Q 958.548 176.928 950.479 176.928 Z  M 1010.891 129.151 L 1011.365 129.151 L 1021.886 116.02 L 1048.306 87.86 L 1069.742 87.86 L 1034.542 125.433 L 1071.957 175.346 L 1050.125 175.346 L 1022.044 136.982 L 1011.84 145.367 L 1011.84 175.346 L 993.409 175.346 L 993.409 52.264 L 1011.84 52.264 L 1011.84 112.302 L 1010.891 129.151 L 1010.891 129.151 Z  M 312.468 74.254 L 312.468 74.254 L 312.468 74.254 Q 296.173 74.254 286.839 85.803 L 286.839 85.803 L 286.839 85.803 Q 277.505 97.352 277.505 117.681 L 277.505 117.681 L 277.505 117.681 Q 277.505 138.959 286.483 149.875 L 286.483 149.875 L 286.483 149.875 Q 295.461 160.792 312.468 160.792 L 312.468 160.792 L 312.468 160.792 Q 319.824 160.792 326.706 159.328 L 326.706 159.328 L 326.706 159.328 Q 333.588 157.865 341.023 155.571 L 341.023 155.571 L 341.023 171.787 L 341.023 171.787 Q 327.418 176.928 310.174 176.928 L 310.174 176.928 L 310.174 176.928 Q 284.782 176.928 271.177 161.543 L 271.177 161.543 L 271.177 161.543 Q 257.571 146.158 257.571 117.523 L 257.571 117.523 L 257.571 117.523 Q 257.571 99.488 264.176 85.961 L 264.176 85.961 L 264.176 85.961 Q 270.781 72.435 283.279 65.237 L 283.279 65.237 L 283.279 65.237 Q 295.777 58.039 312.626 58.039 L 312.626 58.039 L 312.626 58.039 Q 330.345 58.039 345.374 65.474 L 345.374 65.474 L 338.571 81.215 L 338.571 81.215 Q 332.718 78.447 326.192 76.351 L 326.192 76.351 L 326.192 76.351 Q 319.666 74.254 312.468 74.254 Z  M 439.562 131.445 L 439.562 131.445 L 439.562 131.445 Q 439.562 152.881 428.566 164.905 L 428.566 164.905 L 428.566 164.905 Q 417.571 176.928 397.954 176.928 L 397.954 176.928 L 397.954 176.928 Q 385.693 176.928 376.28 171.391 L 376.28 171.391 L 376.28 171.391 Q 366.867 165.854 361.805 155.492 L 361.805 155.492 L 361.805 155.492 Q 356.742 145.129 356.742 131.445 L 356.742 131.445 L 356.742 131.445 Q 356.742 110.167 367.658 98.222 L 367.658 98.222 L 367.658 98.222 Q 378.574 86.278 398.429 86.278 L 398.429 86.278 L 398.429 86.278 Q 417.413 86.278 428.487 98.499 L 428.487 98.499 L 428.487 98.499 Q 439.562 110.72 439.562 131.445 Z  M 375.885 131.445 L 375.885 131.445 L 375.885 131.445 Q 375.885 161.741 398.271 161.741 L 398.271 161.741 L 398.271 161.741 Q 420.419 161.741 420.419 131.445 L 420.419 131.445 L 420.419 131.445 Q 420.419 101.465 398.112 101.465 L 398.112 101.465 L 398.112 101.465 Q 386.405 101.465 381.145 109.217 L 381.145 109.217 L 381.145 109.217 Q 375.885 116.969 375.885 131.445 Z  M 477.508 52.264 L 477.508 175.346 L 458.919 175.346 L 458.919 52.264 L 477.508 52.264 L 477.508 52.264 Z  M 579.685 131.445 L 579.685 131.445 L 579.685 131.445 Q 579.685 152.881 568.689 164.905 L 568.689 164.905 L 568.689 164.905 Q 557.694 176.928 538.077 176.928 L 538.077 176.928 L 538.077 176.928 Q 525.816 176.928 516.403 171.391 L 516.403 171.391 L 516.403 171.391 Q 506.99 165.854 501.928 155.492 L 501.928 155.492 L 501.928 155.492 Q 496.865 145.129 496.865 131.445 L 496.865 131.445 L 496.865 131.445 Q 496.865 110.167 507.781 98.222 L 507.781 98.222 L 507.781 98.222 Q 518.697 86.278 538.552 86.278 L 538.552 86.278 L 538.552 86.278 Q 557.536 86.278 568.61 98.499 L 568.61 98.499 L 568.61 98.499 Q 579.685 110.72 579.685 131.445 Z  M 516.008 131.445 L 516.008 131.445 L 516.008 131.445 Q 516.008 161.741 538.394 161.741 L 538.394 161.741 L 538.394 161.741 Q 560.542 161.741 560.542 131.445 L 560.542 131.445 L 560.542 131.445 Q 560.542 101.465 538.235 101.465 L 538.235 101.465 L 538.235 101.465 Q 526.528 101.465 521.268 109.217 L 521.268 109.217 L 521.268 109.217 Q 516.008 116.969 516.008 131.445 Z  M 643.418 86.278 L 643.418 86.278 L 643.418 86.278 Q 649.034 86.278 652.673 87.069 L 652.673 87.069 L 650.854 104.392 L 650.854 104.392 Q 646.898 103.443 642.627 103.443 L 642.627 103.443 L 642.627 103.443 Q 631.474 103.443 624.552 110.72 L 624.552 110.72 L 624.552 110.72 Q 617.631 117.998 617.631 129.625 L 617.631 129.625 L 617.631 175.346 L 599.042 175.346 L 599.042 87.86 L 613.597 87.86 L 616.049 103.285 L 616.998 103.285 L 616.998 103.285 Q 621.349 95.454 628.349 90.866 L 628.349 90.866 L 628.349 90.866 Q 635.35 86.278 643.418 86.278 Z " fill-rule="evenodd" fill="rgb(125,125,125)"/><g><path d="M 4.42 0 L 220.58 0 C 223.02 0 225 1.98 225 4.42 L 225 220.58 C 225 223.02 223.02 225 220.58 225 L 4.42 225 C 1.98 225 0 223.02 0 220.58 L 0 4.42 C 0 1.98 1.98 0 4.42 0 Z" style="stroke:none;fill:#3B3B3B;stroke-miterlimit:10;"/><g><path d="M 6.501 5.965 L 71.731 5.965 C 72.592 5.965 73.291 6.664 73.291 7.525 L 73.291 72.752 C 73.291 73.612 72.592 74.311 71.731 74.311 L 6.501 74.311 C 5.64 74.311 4.941 73.612 4.941 72.752 L 4.941 7.525 C 4.941 6.664 5.64 5.965 6.501 5.965 Z" style="stroke:none;fill:#4E64B7;stroke-miterlimit:10;"/><path d="M 79.885 5.965 L 145.115 5.965 C 145.976 5.965 146.675 6.664 146.675 7.525 L 146.675 72.752 C 146.675 73.612 145.976 74.311 145.115 74.311 L 79.885 74.311 C 79.024 74.311 78.325 73.612 78.325 72.752 L 78.325 7.525 C 78.325 6.664 79.024 5.965 79.885 5.965 Z" style="stroke:none;fill:#4E9EB7;stroke-miterlimit:10;"/><path d="M 153.269 5.965 L 218.499 5.965 C 219.36 5.965 220.059 6.664 220.059 7.525 L 220.059 72.752 C 220.059 73.612 219.36 74.311 218.499 74.311 L 153.269 74.311 C 152.408 74.311 151.709 73.612 151.709 72.752 L 151.709 7.525 C 151.709 6.664 152.408 5.965 153.269 5.965 Z" style="stroke:none;fill:#45BFA9;stroke-miterlimit:10;"/></g><g><path d="M 6.501 78.327 L 71.731 78.327 C 72.592 78.327 73.291 79.026 73.291 79.887 L 73.291 145.113 C 73.291 145.974 72.592 146.673 71.731 146.673 L 6.501 146.673 C 5.64 146.673 4.941 145.974 4.941 145.113 L 4.941 79.887 C 4.941 79.026 5.64 78.327 6.501 78.327 Z" style="stroke:none;fill:#4EB75C;stroke-miterlimit:10;"/><path d="M 79.885 78.327 L 145.115 78.327 C 145.976 78.327 146.675 79.026 146.675 79.887 L 146.675 145.113 C 146.675 145.974 145.976 146.673 145.115 146.673 L 79.885 146.673 C 79.024 146.673 78.325 145.974 78.325 145.113 L 78.325 79.887 C 78.325 79.026 79.024 78.327 79.885 78.327 Z" style="stroke:none;fill:#BEBA46;stroke-miterlimit:10;"/><path d="M 153.269 78.327 L 218.499 78.327 C 219.36 78.327 220.059 79.026 220.059 79.887 L 220.059 145.113 C 220.059 145.974 219.36 146.673 218.499 146.673 L 153.269 146.673 C 152.408 146.673 151.709 145.974 151.709 145.113 L 151.709 79.887 C 151.709 79.026 152.408 78.327 153.269 78.327 Z" style="stroke:none;fill:#C97D3B;stroke-miterlimit:10;"/></g><g><path d="M 6.501 150.689 L 71.731 150.689 C 72.592 150.689 73.291 151.388 73.291 152.248 L 73.291 217.475 C 73.291 218.336 72.592 219.035 71.731 219.035 L 6.501 219.035 C 5.64 219.035 4.941 218.336 4.941 217.475 L 4.941 152.248 C 4.941 151.388 5.64 150.689 6.501 150.689 Z" style="stroke:none;fill:#C93B3B;stroke-miterlimit:10;"/><path d="M 79.885 150.689 L 145.115 150.689 C 145.976 150.689 146.675 151.388 146.675 152.248 L 146.675 217.475 C 146.675 218.336 145.976 219.035 145.115 219.035 L 79.885 219.035 C 79.024 219.035 78.325 218.336 78.325 217.475 L 78.325 152.248 C 78.325 151.388 79.024 150.689 79.885 150.689 Z" style="stroke:none;fill:#C93B8C;stroke-miterlimit:10;"/><path d="M 153.269 150.689 L 218.499 150.689 C 219.36 150.689 220.059 151.388 220.059 152.248 L 220.059 217.475 C 220.059 218.336 219.36 219.035 218.499 219.035 L 153.269 219.035 C 152.408 219.035 151.709 218.336 151.709 217.475 L 151.709 152.248 C 151.709 151.388 152.408 150.689 153.269 150.689 Z" style="stroke:none;fill:#A83BC9;stroke-miterlimit:10;"/></g></g></g></svg>